<mxfile host="app.diagrams.net" modified="2023-10-11T08:34:33.140Z" agent="Mozilla/5.0 (Macintosh; Intel Mac OS X 10_15_7) AppleWebKit/605.1.15 (KHTML, like Gecko) Version/16.5.2 Safari/605.1.15" version="22.0.4" etag="ImBGJVGYhcFBVUsUmq5f" type="github">
  <diagram name="第 1 页" id="hK65rLzHrUiP2JSfui3Y">
    <mxGraphModel>
      <root>
        <mxCell id="0" />
        <mxCell id="1" parent="0" />
      </root>
    </mxGraphModel>
  </diagram>
</mxfile>
